<?xml version="1.0" encoding="UTF-8" standalone="no"?>
<svg xmlns="http://www.w3.org/2000/svg" version="1.1" xmlns:xlink="http://www.w3.org/1999/xlink" xmlns:svgjs="http://svgjs.dev/svgjs" width="308.7612359841165" height="304.915625" viewBox="0 0 2000 1500">
	<g transform="matrix(0.75,0,0,0.75,250.91757744169092,27.211810363235884)">
		<svg viewBox="0 0 256 247" data-background-color="#ffffff" preserveAspectRatio="xMidYMid meet" height="1929" width="2000" xmlns="http://www.w3.org/2000/svg" xmlns:xlink="http://www.w3.org/1999/xlink">
			<g id="tight-bounds" transform="matrix(1,0,0,1,-0.1565998833819151,-0.09997365579206985)">
				<svg viewBox="0 0 256.31319976676383 247.2" height="247.2" width="256.31319976676383">
					<g>
						<svg viewBox="0 0 256.31319976676383 247.2" height="247.2" width="256.31319976676383">
							<g>
								<svg viewBox="0 0 256.31319976676383 247.2" height="247.2" width="256.31319976676383">
									<g id="textblocktransform">
										<svg viewBox="0 0 256.31319976676383 247.2" height="247.2" width="256.31319976676383" id="textblock">
											<g>
												<svg viewBox="0 0 256.31319976676383 247.2" height="247.2" width="256.31319976676383">
													<path d="M255.713 53.02C254.508 27.36 251.074 20.227 251.074 20.227 240.53-6.202 227.372-0.506 215.551 3.292 194.681 3.446 173.895 9.091 153.073 12.119 109.368 12.581 65.29 4.986 21.802 23.717 17.717 29.464-4.238 24.846 0.727 56.304 2.028 69.39 6.776 83.913 6.631 95.922 7.282 98.026 8.185 93.202 8.571 96.23 9.921 104.39 12.126 100.541 13.933 105.365 11.415 118.246 13.222 128.971 14.945 140.21 11.909 143.135 8.017 141.749 6.27 151.449 6.089 158.479 5.113 157.145 4.04 156.837 3.257 156.632 1.679 157.402 1.944 159.608 2.847 167.152-1.033 171.514 1.401 178.904-0.274 186.91 2.558 193.838 2.173 202.511 2.124 204.255 2.389 205.744 2.811 206.154 4.679 208.361 1.956 212.672 2.245 217.342 21.404 249.262 42.19 227.195 61.819 241.872 66.916 231.608 63.084 245.516 65.121 243.36 66.711 240.846 67.868 251.263 69.664 245.362 69.941 243.668 69.519 239.665 70.507 240.435 71.025 240.846 71.483 240.743 71.556 238.382 71.664 234.841 70.712 237.048 70.459 235.201 73.194 225.861 72.519 248.081 75.086 247.158 74.966 244.438 74.219 240.538 75.749 241.051 77.267 237.151 77.315 233.918 78.665 242.693 78.713 244.592 78.954 245.926 79.34 246.85 83.557 237.305 87.75 250.237 92.173 245.926 94.884 241.205 97.487 248.492 100.234 246.696 101.198 245.259 102.174 242.693 103.102 247.004 114.465 247.928 126.575 244.079 137.348 247.158 166.135 241.41 196.898 249.518 227.251 241.923 234.409 238.998 241.844 234.841 248.821 231.506 248.821 231.506 254.472 222.371 254.472 181.316S255.677 145.393 255.858 112.703C256.038 80.013 256.882 78.679 255.677 53.02Z" opacity="1" fill="#f00e3d" data-fill-palette-color="tertiary">
													</path>
													<g transform="matrix(1,0,0,1,55.76832,26.230666666666668)">
														<svg width="144.77655976676382" viewBox="4.599999904632568 -34.29999923706055 25.5 34.29999923706055" height="194.73866666666666" data-palette-color="#ffffff">
															<path d="M25.65-34.3L30.1-34.3 30.1 0 25.95 0 9.2-25.1 9.05-25.05 9.05 0 4.6 0 4.6-34.3 8.9-34.3 25.5-9.5 25.65-9.55 25.65-34.3Z" opacity="1" transform="matrix(1,0,0,1,0,0)" fill="#ffffff" class="wordmark-text-0" data-fill-palette-color="quaternary" id="text-0">
															</path>
														</svg>
													</g>
												</svg>
											</g>
										</svg>
									</g>
								</svg>
							</g>
							<g>
							</g>
						</svg>
					</g>
					<defs>
					</defs>
				</svg>
				<rect width="256.31319976676383" height="247.2" fill="none" stroke="none" visibility="hidden">
				</rect>
			</g>
		</svg>
	</g>
</svg>
